# xmcd
#
# Track frame offsets: 
#        150
#        28752
#        57025
#        91548
#        133373
#        168181
#        201321
#        223009
#        265897
#        284885
#
# Disc length: 4188 seconds
#
# Revision: 0
# Processed by: cddbd v1.5.2PL0 Copyright (c) Steve Scherf et al.
# Submitted via: ExactAudioCopy v0.95a4
#
DISCID=98105a0a
DTITLE=The Blues Cousins - Alive In The USA
DYEAR=2005
DGENRE=Blues
TTITLE0=Messing With The Kid
TTITLE1=No More Dodding
TTITLE2=Talk To Me
TTITLE3=Sweet Home Chicago
TTITLE4=Help Me
TTITLE5=Johnny B. Goode
TTITLE6=My Baby Is Coming Home
TTITLE7=Moscow Boogie
TTITLE8=You Don't Love Me
TTITLE9=Long Time Ago
EXTD=
EXTT0=
EXTT1=
EXTT2=
EXTT3=
EXTT4=
EXTT5=
EXTT6=
EXTT7=
EXTT8=
EXTT9=
PLAYORDER=
